<?xml version="1.0" encoding="utf-8"?>
<!-- Generator: Adobe Illustrator 11 Build 196, SVG Export Plug-In . SVG Version: 6.0.0 Build 78)  -->
<!DOCTYPE svg PUBLIC "-//W3C//DTD SVG 1.0//EN"    "http://www.w3.org/TR/2001/REC-SVG-20010904/DTD/svg10.dtd" [
	<!ENTITY ns_flows "http://ns.adobe.com/Flows/1.0/">
	<!ENTITY ns_extend "http://ns.adobe.com/Extensibility/1.0/">
	<!ENTITY ns_ai "http://ns.adobe.com/AdobeIllustrator/10.0/">
	<!ENTITY ns_graphs "http://ns.adobe.com/Graphs/1.0/">
	<!ENTITY ns_vars "http://ns.adobe.com/Variables/1.0/">
	<!ENTITY ns_imrep "http://ns.adobe.com/ImageReplacement/1.0/">
	<!ENTITY ns_sfw "http://ns.adobe.com/SaveForWeb/1.0/">
	<!ENTITY ns_custom "http://ns.adobe.com/GenericCustomNamespace/1.0/">
	<!ENTITY ns_adobe_xpath "http://ns.adobe.com/XPath/1.0/">
	<!ENTITY ns_svg "http://www.w3.org/2000/svg">
	<!ENTITY ns_xlink "http://www.w3.org/1999/xlink">
]>
<svg 
	 xmlns:x="&ns_extend;" xmlns:i="&ns_ai;" xmlns:graph="&ns_graphs;" i:viewOrigin="158.4624 309.4385" i:rulerOrigin="-197 -304.165" i:pageBounds="197 307 199.835 304.165"
	 xmlns="&ns_svg;" xmlns:xlink="&ns_xlink;" xmlns:a="http://ns.adobe.com/AdobeSVGViewerExtensions/3.0/"
	 width="99.672" height="16.876" viewBox="0 0 99.672 16.876" overflow="visible" enable-background="new 0 0 99.672 16.876"
	 xml:space="preserve">
	<metadata>
		<variableSets  xmlns="&ns_vars;">
			<variableSet  varSetName="binding1" locked="none">
				<variables></variables>
				<v:sampleDataSets  xmlns="&ns_custom;" xmlns:v="&ns_vars;"></v:sampleDataSets>
			</variableSet>
		</variableSets>
		<sfw  xmlns="&ns_sfw;">
			<slices></slices>
			<sliceSourceBounds  y="292.562" x="158.462" width="99.672" height="16.876" bottomLeftOrigin="true"></sliceSourceBounds>
		</sfw>
<?xpacket begin='﻿' id='W5M0MpCehiHzreSzNTczkc9d'?><x:xmpmeta xmlns:x='adobe:ns:meta/' x:xmptk='XMP toolkit 3.0-29, framework 1.6'>
<rdf:RDF xmlns:rdf='http://www.w3.org/1999/02/22-rdf-syntax-ns#' xmlns:iX='http://ns.adobe.com/iX/1.0/'>

 <rdf:Description rdf:about=''
  xmlns:pdf='http://ns.adobe.com/pdf/1.3/'>
 </rdf:Description>

 <rdf:Description rdf:about=''
  xmlns:tiff='http://ns.adobe.com/tiff/1.0/'>
 </rdf:Description>

 <rdf:Description rdf:about=''
  xmlns:xap='http://ns.adobe.com/xap/1.0/'
  xmlns:xapGImg='http://ns.adobe.com/xap/1.0/g/img/'>
  <xap:CreateDate>2007-02-08T08:10:37Z</xap:CreateDate>
  <xap:ModifyDate>2007-02-08T08:46:06Z</xap:ModifyDate>
  <xap:CreatorTool>Illustrator</xap:CreatorTool>
  <xap:Thumbnails>
   <rdf:Alt>
    <rdf:li rdf:parseType='Resource'>
     <xapGImg:format>JPEG</xapGImg:format>
     <xapGImg:width>256</xapGImg:width>
     <xapGImg:height>44</xapGImg:height>
     <xapGImg:image>/9j/4AAQSkZJRgABAgEASABIAAD/7QAsUGhvdG9zaG9wIDMuMAA4QklNA+0AAAAAABAASAAAAAEA&#xA;AQBIAAAAAQAB/+4ADkFkb2JlAGTAAAAAAf/bAIQABgQEBAUEBgUFBgkGBQYJCwgGBggLDAoKCwoK&#xA;DBAMDAwMDAwQDA4PEA8ODBMTFBQTExwbGxscHx8fHx8fHx8fHwEHBwcNDA0YEBAYGhURFRofHx8f&#xA;Hx8fHx8fHx8fHx8fHx8fHx8fHx8fHx8fHx8fHx8fHx8fHx8fHx8fHx8fHx8f/8AAEQgALAEAAwER&#xA;AAIRAQMRAf/EAaIAAAAHAQEBAQEAAAAAAAAAAAQFAwIGAQAHCAkKCwEAAgIDAQEBAQEAAAAAAAAA&#xA;AQACAwQFBgcICQoLEAACAQMDAgQCBgcDBAIGAnMBAgMRBAAFIRIxQVEGE2EicYEUMpGhBxWxQiPB&#xA;UtHhMxZi8CRygvElQzRTkqKyY3PCNUQnk6OzNhdUZHTD0uIIJoMJChgZhJRFRqS0VtNVKBry4/PE&#xA;1OT0ZXWFlaW1xdXl9WZ2hpamtsbW5vY3R1dnd4eXp7fH1+f3OEhYaHiImKi4yNjo+Ck5SVlpeYmZ&#xA;qbnJ2en5KjpKWmp6ipqqusra6voRAAICAQIDBQUEBQYECAMDbQEAAhEDBCESMUEFURNhIgZxgZEy&#xA;obHwFMHR4SNCFVJicvEzJDRDghaSUyWiY7LCB3PSNeJEgxdUkwgJChgZJjZFGidkdFU38qOzwygp&#xA;0+PzhJSktMTU5PRldYWVpbXF1eX1RlZmdoaWprbG1ub2R1dnd4eXp7fH1+f3OEhYaHiImKi4yNjo&#xA;+DlJWWl5iZmpucnZ6fkqOkpaanqKmqq6ytrq+v/aAAwDAQACEQMRAD8A9U4q7FXYq7FXYq7FXYq7&#xA;FXYq7FXYq7FXYq7FXYq7FXYq7FWP+d/PnlbyRow1nzLefUrBpRbxOI5JWeZlZ1jVY1dqlY29vHFW&#xA;QYq+WPzJ/Ov8zdG/5yHPlHTdZ9Dy9+kNKt/qX1a0f93dQ2zTL6rxNL8TStvyqK7YqyH8/POv5+6L&#xA;5+0u08j2Vy+iPDG0ZtrNbuO4uGdhIk7mNylBQceS7fFXuFVH/nKH82PzF8j3HliPy7qQ0t9Qt7h9&#xA;QjWC3uFMkZiAoZ45SAvNulMVZ5P5h/Maf8r/ACf5j0INqes3+nWranbCKKk0t/YUjuSAvwLDdvHI&#xA;4Si8OW2wxVj0F5+fZ1vWLGXVZFiS8t7WyP6LDcLU6pawfXY5RbLayc7JpZZU9ditTRY+Oyq7XNX/&#xA;ADZl1W9XSbW91GbSr68Ol3d1p8cEBT9D3qwen6sEL8xciNXkEhjkLLxKqzRhVbBefnfdWd9Faavq&#xA;JtreK/n07VbjR7e2u7mWC1tnhgktJYFCKblpUQ8FZxX/ACWxVE/mzp3nbWLe3W2bVVj1Ly/Mk2k2&#xA;cCy2f6QEsEgWcelI8b8HcqS67xhQd2V1W9QuPz0s5tTsrO+uNQ/RlrqstjeyWNqn12RBa/UUfhEq&#xA;cl+szU9MLzMdKdcVSy11f8/GutCibUpDZSzO0t8+k3AaYfWIz9Xu4/0fG8QWDmBJ6cCmtedVoVXv&#xA;WKuxV836Xr/5k/nh5p1geXfMM/lHyBos31aK6sdrq7kFaMJEZGBZfiPx8VBXZjU4qzvStE1f8pvL&#xA;vmXzH5g836l5r0y1tFntbTUWLSRyR86qJXeQkzMyKOgHvirB/IvlP82PzW0P/GmveetT8t22pNId&#xA;I0nRXa2jjhViiu/B0LAsDTlViN+W+yqc/k/5+87aX+Y+rflP57vf0rqFlGbnR9aICvPCFV+D0+1y&#xA;jfmCalSGUk7UVYd5Uv8A82/Pf5m+fvKFj5sutI0HT9Xu3ub9WaW5ggjupooLWzqy+kGpuVIoF+gq&#xA;qSan+eHk78zJfyms/M0msv5jhSXR9c1TnNNaQtzeW4X1DIzMkcEq8CxWoBFOmKovzav5m/kr5p8t&#xA;azP5z1DzV5b1e7Wz1W11JpH4k0L8FeSULyUsyFKUK0NR1VZJ/wA5O+cvPHlfWvIU/lW7ljkuby5j&#xA;msEdliu5OVt6MUyAjmpqw+nFVLX/AMnvzvj0SbzDbfmVqVz5tgjN02lQlotPkdVLG3iiD+n7KWjo&#xA;3dR2VRvlf/nIlrn8hL7z5qMEcmuaQ50+4t1+GOa9PAQvQdEcTK706fFTpiqW+VPy0/Nzzz5at/Nu&#xA;v/mLq2i6nq8Iu7DTdNZoLWCKT44PUijeNXqlCVoD4kmuKp5+Qv5lebNR1zzB+XvnaRbjzP5ZYlL9&#xA;QFNzbrJ6ZZgAo+EshVqfErCu4JKrzv8AKb/lc35jtr+hT+crzSdE0fUZTd6pCzSahLJJ8CW0UxdW&#xA;jijEJf4abtvWvwqsm/LXzF5/8k/nW/5W+addm8y6dqVs13pGo3RZ7hSsbTAlnaRwCsUispZtwCtN&#xA;6qq/nPzt5i87fmtfeQNH8zf4Q8teX4g2taxDIkV1cTsF/cwyMyMnEtx+EjoxNfhGKpbF5k8xflf+&#xA;ZnlrTf8AGs3nPyf5pn+pTJf3C3d1aTsyRo/qhnYDlKp2oCOQ41AbFW/zB80fmhN/zkQfJflPWnsY&#xA;tV02OJfWJkt7QFPWnukhJ4mURxMFr3P04ql35hw/ml+SV7o3m0edb/zVoV3draarp2pM7AuyNIRG&#xA;jySKgdEfiV4lSB9oYqv/AOczdB1FvL+m+ZV1u4k0ie7trSLQaH6sJTBcyC7B5fbKjh9noeuKvZvy&#xA;4/L/AMzeVJ76TWfON/5pW7WNYY74ECAoWLFKySfb5CvyxV8s/nD/AOtaH/tq6H/1D2mKss/5y0/M&#xA;Pzz5b/MbTrHQNdvdLs5NHhnkt7WZ4kaVrq5UuVUjcqiivtiq3/nOL/jq+Uf+MF7/AMThxVjN35R/&#xA;5yMP5X6d54XzDcW2habYQPY6VaXk1tPDp8ESpFOIYhHER6ShyeZcjc4q9N/Jf84fMfnL8oPOdpql&#xA;7J/iTy9p1w0GrIQkzRy20pglqtP3sTxGrf6pO9TirxryZ53/AOchPPttceUvLurahfTuxvLy7N0Y&#xA;5UhVQgQ3Lunpxlj9kH4ifbFXtvn7yn+byeTPKEEnnqLylZ2OmpB5mvLy+MDG8QKARcx1kmZwSKep&#xA;T4fE7qvEP+Vnee/y183Wr6V57/xhpo4zXEa3NxcWkiliskUiXFeD0X7SdqGvbFXs3/OWPnzzLo+h&#xA;eT9S8savd6UupG5d2tZXhMkbRwunMKRWnLavTFUg/KS3/P8A89+btD846zeX0Xk51lhJjuxbIYhb&#xA;vB6kduHDMxkofUKbtviqW/lT+Y/5ieXfz7Xyd5y1691K1a5n0mSO6meSMyt/vNMiuf8AdjqnE/yt&#xA;iqp5t8+/mF5r/wCckZPKHlzzBf2GjjUY9Pe2tJ3jVIrRB9eeiEfEPTlbFU6/5x387aN+WOo+Y/y0&#xA;87XKaNeQai91Z3t1+6t5eSJEaytRUVkiR0ZtiD18VXqn5i6j5f8AzJ/LrzZ5a8n6vZ6zqqWSSejZ&#xA;TRzjlz9WJOaEpWQwFeu3emKsa/5x8/OLyOfy007RtZ1e10bWPL8Rs720v5Y7VuMTEJInqFOQ4U5U&#xA;3DVr2JVY/wDlxef8rF/5yV1bz5o0bnytodobK31BlKLPKYRCAAwr8XN3A2IULyoTTFUT/wA46/8A&#xA;k6Pzg/7asv8A1HXWKorzl/62T5E/7Yc3/JrU8Vd/zmJ/yivlb/tuRf8AJmTFUF/zl5qa6Vf/AJea&#xA;o0bTLYanLdNEv2nELW78R7njTFXoet/85C/lVYeUZ/MFp5gsr6QQGS00yKZTeSSlT6cRt6+qlW2J&#xA;ZQF74q8K8r/lV5luf+cUNYMdu51DUb5dcs7OnxyWluI02WleTIkjr/MONOuKvYvyp/PP8ub78ttL&#xA;uNR1yy0y90uyht9Ts7mWOGRJIEEZaOMkF1fjVOAPWnXbFWIf84/Ld+bvzi88fmhb28kGgXqNp2my&#xA;SKV9askJDAGu6x2ql/AtTFUZ/wA4m/8ATff9tx/+N8VQvmX/ANbR8p/9sqX/AKg77FWGa35W/LfR&#xA;/wDnIPzLZfmtYctF8wsb/QtUkluYIEeVuZDPbyRfDVmRi1eLKOgNcVelaB+XP/OKH+JNLh0F9Nut&#xA;dacS6bFZ6vc3T+tbgzg8UuZF+H06/HsemKpRe/8AraNh/wBspv8AqDlxVFf85q/+Ss0r/tuW/wD1&#xA;CXeKqX/OXFpPP+SWjSxIWS11GylnI/ZQ2k8QJ/2cijFXs/lLz15U822f1nQNUttQKRQzXMVvKsjw&#xA;euGKLMqmqMeDfCwB2xV8ffnD/wCtaH/tq6H/ANQ9piqL/wCc1f8Ayaelf9sO3/6i7vFU/wD+c4v+&#xA;Or5R/wCMF7/xOHFVCf8A5yb8sr+Q48mJYXS+ZRpA0CSJ1X0FQQfVWn9Stf7v4uPGvLbpviq//nGr&#xA;ypqVn+U/5i+ZbqNorPVNNntdPLCnqC2t5zM4r1XlIFBHcMO2Kqn/ADg6B+lvNppuLezAPehebFWL&#xA;/wDOVOo6hcfnalj5he4Ty3aR2f1NIuv1SVEa6khVvh5mT1Fqe6gHpirCfzjvPykl1fT7f8tLSSHS&#xA;7a243l1L69Z52YmtLhmk+FdugHgKYq9e/wCctv8AlAfy4/4wSf8AUNb4q9+/JJET8ovKAVQoOl2x&#xA;oBTdowSfpJxV8/8A/OX/AJVutB846D+Yelj05Lho4biUDZb2zIkt3Pu8a0/2GKq3/OHfli61jzR5&#xA;i/MHUl5yKz21vKQaNdXTetcuPdU4j/Z4q+kfNH5feSfNRibzFolpqckIpFNPEpkVevFZBRwvtWmK&#xA;rvK/kLyZ5UWYeXNGtdLNxQTyW8YV3C1IDv8AbYCuwJ2xVAeYPyl/LXzDqDajrPlyxvL+T+9uWiCy&#xA;P7uycS592xVkGkaNpGjWEen6RZQafYQ19K1to1ijWu5oiADc9cVQ2k+U/LWkahf6jpemW1lf6o5l&#xA;1G6hjVJJ3LM5aRgKseTsd/HFV1x5X8u3Gv23mKfTbeXXbOMwWmptGpuI4iHBRJPtAUlfb3OKu1/y&#xA;v5d8wwQwa5ptvqUNtIJ4I7mNZFSUAgOoboaHrirxf/nJy2nm80fleY4mkVNbBkKqWAHq23WnTFWX&#xA;edPIH5OeVdJ1Lzre+T7G4bTUN3NHDbx1YggVWJuMNamu4679cVek2sqTWsM0a8UkRXRfAMAQNsVY&#xA;lqv5N/lZq2oyalqHlfT572Vuc0xhCl2rXk4XirE9yRvirKrGwsdPs4rKwtorSzgXhBbQIsUSKP2U&#xA;RAFUfIYqxn8vT5Rb9P8A+HNIj0n6rq1xY6l6caR+vc29Oc3wdQ3PYnfFU4m8p+WpvMMHmOXTLZ9e&#xA;tkMVvqbRqbhEKspVZKcgOMjD6TirvMflTy15lsvqOv6Zbanag8kjuY1k4Mf2kJFUPuu+KpR5f/Kb&#xA;8tfL18uoaN5bsLS+j3iulhVpUNKVjd+TIaH9mmKpu3lPy03mFfMbaZbHXkT0k1Mxr9YCcSvESU5U&#xA;4kjFUntD5R/Mny+zappEd7p1rqFzAtrfxpIBcWMslq0qr8Q3o3E9aHFWRaho+lalpkul6haQ3emz&#xA;p6U1nMivEyDopRgRtTbFWEzW/kP8rFt7fy35bY6n5kuFtrbTdKRBNcyW8UktWeeSONUiTmSWfauK&#xA;p5cfl75F1XVo/MWo+XLN9dcwztdzwxvcpJEqiPlIOXxRhFAIPbbFVXzD+XnkbzJepfa/oVlql5HG&#xA;II7i6hSV1iVmYIGYHYM7Gnviqr5j8jeTvMzwSeYdGtNVe1DLbtdxLKUD0LBeQNK8RiqV6r+T/wCV&#xA;+raq+q6j5Y0+51CRg8s7wr8bD9qRRRXJ78hv3xVk7abp7ac2mG2i/RzQm3NmEUReiV4GPgBx48dq&#xA;eGKpVoHkryZ5VFzPoOjWmlGdR9aa0hWMusdSOXAValTTFWG3vmD8mvzGuYtO1XTf0jdQW819pi6n&#xA;YXFq01vGaSvaSXEcRdaqOQU/MbbKovyr5C/KTzN5K0O/t/KNhHpVzAL2xtJ7aItH9aVC5anKrsEU&#xA;ManoPDFWSar5K8i+YLS20/U9IsdStdI/cWttLGkq23wKOCqa8PgC7eFMVQvlvzd5Kk1JvKXlvlIN&#xA;IU20i2VtMbG1MIA9BrlU+rq6jbhzrir5c/O3zN+aX5ofmLcflvp2l8bTRr+RIrO35MrlSUju7qZg&#xA;Ai+k1R0A5dzir6k/LHyFY+RPJWneW7RhI1qha7uQKetcSHlLJ47saLXooA7YqyrFXYq7FXYq7FXY&#xA;q7FXYq8//P7/AMk35s/5gW/4kuKvJ9O0byR5o1zRtA8hX1y0Gq6JqEHnQ+rcuYWEKi0mu1mPwXKX&#xA;u46N17UxVmP5MajrvnDzFN5j1yOSGbyrp8fll4XPwvqiNz1Oen81VjQHwJxVgvnvzjYT/mZJJZSW&#xA;+ka/pnmbT7FYGe/l1K5iEsUckoq62kFrJG9OHBg3f4mFVVTzLc6jEl5FJcQ2vlifz1q667PeeuLL&#xA;kIYzaLeNbNHIIWl9+PLjy2xV00Wo6f5b0keSddt9d88Nq1/J5Uj0h3mtItOaFWvbSQ3Dvyt4mqyc&#xA;2NHZQvfFUu8zeY/I8vlXy/oliY4o5NDub6PWdZfUJLiXUHmaK4to4LWSIPqC3AJJdvhqOIK4qyPy&#xA;1oOn+f8Azt5Zh8yT3N/byfl5pl5cItzNEJbt55I3ml9Nl5updiCf2t8VSzQNX0jUbfyG35m6jIPK&#xA;UnldpbK4u7iaG3m1ZLgxyetKjLzlS1C8OTdzT4sVSfT7iUeUvJ1vJdxW/kubVNf+sXOtm6W0kuRd&#xA;t9TXUHheJw3Dmy+o1Oda79FWU6T5QsNa1L8ttD1PWl8waBIvmWaJ9PuLlbeW3jktvStjLz9Z44H2&#xA;Wr/sgdMVZv8Amr5V0HW/zK/LhNUtfrCzXWowyD1JEqkWnzToPgZekqBvw6Yq85tX0PRPIPmTzNqN&#xA;s19d6n5ou9Gmuru7vI7W1tTqBZWlFs3JYEdeTKgqxPEmhpiqA0T0td8r/oRNUafRW8/WdpaXGmtc&#xA;20aWt1afvY7QzPLNHE3qPx+Om5I2OKp15nuPI3kuL8wNC1S3N3oVpeaU/lrQZ7uZIxqF5ZsSqzGV&#xA;WjiLAySEvxUV9sVSFrLQtK0nylpVj5k0zUvLc0+oXHmTULie4fRzrEkcBhhmeCRGRI4qiBXYA0qd&#xA;8VZJpHlGz1jUvy30TU9cGv6HNH5iljm0+4uFt5raCa1aG1eVm9WWKCQFRyb9kb0xV6J+TlxFpnk/&#xA;W7W6u3/Rfl7WtYsraa6kLmGxsrpwitI5LFY0HUnYe2KsQ0Lz55U/MTz6dfTVrOKHSbLULHynoxlX&#xA;6/cvNHW8vpIq8o0MUHGONhy4guabDFUi/Iy41qBtLt9aaFPMl55ftm/L6a5Mjab9RSMfWIljUqfr&#xA;Vfim35FacaKN1WYeSI/zROoeehFNpFf0zMLz0o7lZTc/oqz4G3LSFVWnp/brvXtTFWE/lNenSD5A&#xA;0ry/5mv9Q1y5uJofNnlWenpWcAhke6aW34qbdobgDi7HlIzE71pir6WSGJGdkRVaQ1cqACx8TTri&#xA;q/FXYq7FXYq7FXYq7FXYq7FXYqknmf1v8M61+ifW/SP1ab0/0d6P1v1/TPH0/V/d+p0pzxVKfyk/&#xA;wl/gPTv8K+v+jP3vqfXK/XfrXqN9Z+t139f1eXP36fDTFWWD6t9YanD6zxHOlOfCu1e9K4qum9L0&#xA;n9bj6XE+pzpx4035V2pTFWoPQ9FPQ4+jQenwpx49qU2pirUv1b1IvV4epU+jypy5U341708MVVcV&#xA;Urj6txX6xw48l4+pSnOvw0r3r0xVu4+r+i/1jh6FP3nqU4U967Yquj9P019Onp0HDjTjxptSnbFV&#xA;2Kqc/oei/r8fRofU5048e9a7UxVcnDgvCnCg406U7UxVdiqncfV/Rf6xw9Cn7z1KcKe9dsVXR+n6&#xA;a+nT06Dhxpx402pTtiq7FXYq7FXYqox/U/rMvp+n9Z+H1+PHnSnw86b9OlcVVsVdir//2Q==</xapGImg:image>
    </rdf:li>
   </rdf:Alt>
  </xap:Thumbnails>
 </rdf:Description>

 <rdf:Description rdf:about=''
  xmlns:dc='http://purl.org/dc/elements/1.1/'>
  <dc:format>image/svg+xml</dc:format>
 </rdf:Description>

</rdf:RDF>
</x:xmpmeta>
                                                                                                                                                                                                                                                                                                                                                                                                                                                                                                                                                                                                                                                                                                                                                                                                                                                                                                                                                                                                                                                                                                                                                                                                                                                                                                                                                                                                                                                                                                                                                                                                                                                                                                                                                                                                                                                                                                                                                                                                                                                                                                                                <?xpacket end='w'?>
			</metadata>
		<g id="Layer_1" i:layer="yes" i:dimmedPercent="50" i:rgbTrio="#4F008000FFFF">
			<g>
				<g>
					<g i:knockout="Off">
						<path i:knockout="Off" d="M4.792,9.568C4.502,9.707,3.859,9.922,3.04,9.922C1.198,9.922,0,8.673,0,6.794
							C0,4.914,1.286,3.54,3.279,3.54c0.656,0,1.236,0.164,1.539,0.328L4.565,4.713c-0.265-0.139-0.681-0.29-1.287-0.29
							c-1.4,0-2.156,1.047-2.156,2.32c0,1.412,0.908,2.282,2.119,2.282c0.631,0,1.047-0.15,1.362-0.289L4.792,9.568z"/>
						<path i:knockout="Off" d="M8.502,9.922c-1.639,0-2.926-1.211-2.926-3.141c0-2.044,1.35-3.241,3.027-3.241
							c1.753,0,2.939,1.273,2.939,3.127c0,2.271-1.577,3.255-3.027,3.255H8.502z M8.54,9.09c1.059,0,1.854-0.997,1.854-2.385
							c0-1.034-0.517-2.333-1.829-2.333c-1.299,0-1.867,1.211-1.867,2.371c0,1.337,0.756,2.347,1.829,2.347H8.54z"/>
						<path i:knockout="Off" d="M12.941,5.331c0-0.644-0.025-1.148-0.05-1.652h0.971l0.05,0.983h0.038
							c0.341-0.58,0.908-1.122,1.93-1.122c0.819,0,1.45,0.505,1.715,1.224h0.025c0.189-0.354,0.441-0.605,0.694-0.795
							C18.68,3.69,19.071,3.54,19.651,3.54c0.82,0,2.019,0.529,2.019,2.648v3.595h-1.085V6.327c0-1.186-0.441-1.879-1.324-1.879
							c-0.643,0-1.123,0.466-1.324,0.996c-0.051,0.164-0.088,0.366-0.088,0.555v3.784h-1.085V6.125c0-0.983-0.429-1.677-1.273-1.677
							c-0.681,0-1.198,0.555-1.375,1.109c-0.063,0.164-0.088,0.354-0.088,0.543v3.683h-1.084V5.331z"/>
						<path i:knockout="Off" d="M23.46,5.671c0-0.781-0.013-1.412-0.05-1.992h0.997l0.062,1.047h0.025
							c0.441-0.757,1.173-1.186,2.157-1.186c1.488,0,2.598,1.249,2.598,3.103c0,2.194-1.35,3.279-2.774,3.279
							c-0.82,0-1.514-0.354-1.879-0.959H24.57v3.317h-1.11V5.671z M24.57,7.299c0,0.15,0.013,0.314,0.05,0.453
							c0.189,0.77,0.871,1.3,1.652,1.3c1.173,0,1.854-0.959,1.854-2.358c0-1.224-0.63-2.271-1.803-2.271
							c-0.757,0-1.476,0.529-1.69,1.362c-0.025,0.151-0.063,0.315-0.063,0.453V7.299z"/>
						<path i:knockout="Off" d="M33.133,9.922c-1.64,0-2.926-1.211-2.926-3.141c0-2.044,1.35-3.241,3.027-3.241
							c1.753,0,2.938,1.273,2.938,3.127c0,2.271-1.576,3.255-3.027,3.255H33.133z M33.171,9.09c1.059,0,1.854-0.997,1.854-2.385
							c0-1.034-0.517-2.333-1.829-2.333c-1.299,0-1.867,1.211-1.867,2.371c0,1.337,0.756,2.347,1.829,2.347H33.171z"/>
						<path i:knockout="Off" d="M37.572,5.331c0-0.644-0.013-1.148-0.051-1.652h0.984l0.063,0.996h0.025
							c0.303-0.567,1.009-1.135,2.018-1.135c0.846,0,2.156,0.505,2.156,2.598v3.646h-1.109v-3.52c0-0.983-0.365-1.815-1.413-1.815
							c-0.719,0-1.287,0.517-1.488,1.135c-0.05,0.139-0.076,0.34-0.076,0.518v3.683h-1.11V5.331z"/>
						<path i:knockout="Off" d="M45.203,6.92c0.024,1.501,0.971,2.119,2.081,2.119c0.795,0,1.286-0.14,1.689-0.303l0.202,0.781
							c-0.392,0.177-1.071,0.392-2.043,0.392c-1.866,0-3.002-1.249-3.002-3.077c0-1.854,1.097-3.305,2.876-3.305
							c1.992,0,2.51,1.753,2.51,2.875c0,0.228-0.013,0.404-0.038,0.53L45.203,6.92z M48.444,6.125
							c0.013-0.693-0.29-1.803-1.526-1.803c-1.135,0-1.614,1.034-1.702,1.803H48.444z"/>
						<path i:knockout="Off" d="M50.891,5.331c0-0.644-0.014-1.148-0.051-1.652h0.983l0.063,0.996h0.025
							C52.215,4.107,52.92,3.54,53.93,3.54c0.845,0,2.156,0.505,2.156,2.598v3.646h-1.109v-3.52c0-0.983-0.366-1.815-1.413-1.815
							c-0.719,0-1.286,0.517-1.488,1.135C52.026,5.722,52,5.923,52,6.101v3.683h-1.109V5.331z"/>
						<path i:knockout="Off" d="M59.178,2.216v1.463h1.588v0.845h-1.588v3.292c0,0.757,0.214,1.186,0.832,1.186
							c0.303,0,0.479-0.025,0.643-0.075l0.051,0.844c-0.215,0.076-0.555,0.152-0.983,0.152c-0.517,0-0.934-0.177-1.198-0.467
							c-0.303-0.341-0.43-0.883-0.43-1.602v-3.33h-0.945V3.679h0.945V2.557L59.178,2.216z"/>
						<path i:knockout="Off" d="M63.125,0.828h1.916v8.955h-1.916V0.828z"/>
						<path i:knockout="Off" d="M67.526,2.809c-0.643,0-1.059-0.454-1.059-1.021c0-0.58,0.429-1.021,1.084-1.021
							c0.656,0,1.061,0.441,1.072,1.021c0,0.567-0.416,1.021-1.084,1.021H67.526z M66.581,9.783V3.615h1.917v6.168H66.581z"/>
						<path i:knockout="Off" d="M70.036,0.828h1.918v3.519h0.025c0.365-0.529,1.008-0.87,1.865-0.87
							c1.477,0,2.549,1.224,2.535,3.115c0,2.22-1.399,3.33-2.812,3.33c-0.719,0-1.424-0.266-1.854-0.996h-0.025l-0.075,0.857h-1.627
							c0.024-0.404,0.05-1.148,0.05-1.842V0.828z M71.954,7.159c0,0.126,0.012,0.24,0.037,0.341
							c0.127,0.505,0.568,0.908,1.123,0.908c0.819,0,1.324-0.631,1.324-1.741c0-0.958-0.43-1.715-1.324-1.715
							c-0.518,0-0.996,0.392-1.123,0.946c-0.025,0.113-0.037,0.227-0.037,0.354V7.159z"/>
						<path i:knockout="Off" d="M77.59,5.646c0-0.909-0.013-1.501-0.051-2.031h1.641l0.075,1.148h0.05
							c0.316-0.908,1.061-1.287,1.665-1.287c0.177,0,0.265,0.013,0.403,0.038v1.804c-0.164-0.025-0.314-0.051-0.529-0.051
							c-0.706,0-1.186,0.366-1.312,0.971c-0.024,0.127-0.038,0.266-0.038,0.429v3.116h-1.917L77.59,5.646z"/>
						<path i:knockout="Off" d="M87.365,8.295c0,0.58,0.026,1.147,0.101,1.488h-1.727l-0.114-0.618h-0.038
							c-0.403,0.491-1.034,0.757-1.766,0.757c-1.248,0-1.992-0.908-1.992-1.893c0-1.602,1.438-2.358,3.619-2.358V5.596
							c0-0.328-0.176-0.794-1.122-0.794c-0.631,0-1.3,0.214-1.702,0.453L82.27,4.031c0.429-0.238,1.273-0.555,2.396-0.555
							c2.055,0,2.698,1.211,2.698,2.661V8.295z M85.511,6.869c-1.009,0-1.791,0.24-1.791,0.972c0,0.491,0.327,0.731,0.757,0.731
							c0.467,0,0.87-0.315,0.996-0.706c0.025-0.102,0.038-0.215,0.038-0.328V6.869z"/>
						<path i:knockout="Off" d="M88.903,5.646c0-0.909-0.012-1.501-0.05-2.031h1.64l0.076,1.148h0.05
							c0.315-0.908,1.06-1.287,1.665-1.287c0.176,0,0.265,0.013,0.403,0.038v1.804c-0.163-0.025-0.315-0.051-0.529-0.051
							c-0.706,0-1.187,0.366-1.312,0.971c-0.025,0.127-0.038,0.266-0.038,0.429v3.116h-1.917L88.903,5.646z"/>
						<path i:knockout="Off" d="M95.321,3.615l0.922,3.027c0.1,0.365,0.227,0.819,0.302,1.147h0.038
							c0.088-0.328,0.189-0.794,0.277-1.147l0.757-3.027h2.056l-1.438,4.062c-0.883,2.446-1.476,3.418-2.17,4.036
							c-0.655,0.58-1.361,0.795-1.854,0.845l-0.404-1.614c0.24-0.051,0.543-0.164,0.833-0.328c0.29-0.151,0.618-0.467,0.795-0.77
							c0.063-0.101,0.101-0.189,0.101-0.277c0-0.063-0.013-0.164-0.076-0.315l-2.27-5.638H95.321z"/>
					</g>
					<g i:knockout="Off">
						<path i:knockout="Off" d="M73.695,0.831l0.35,0.997c0.059,0.166,0.106,0.312,0.144,0.46H74.2
							c0.04-0.147,0.092-0.294,0.15-0.46l0.346-0.997h0.338l-0.699,1.78h-0.309l-0.677-1.78H73.695z"/>
						<path i:knockout="Off" d="M75.483,1.776c0.008,0.438,0.283,0.618,0.607,0.618c0.23,0,0.375-0.041,0.492-0.088l0.059,0.228
							c-0.113,0.052-0.312,0.114-0.596,0.114c-0.545,0-0.875-0.364-0.875-0.897c0-0.541,0.32-0.964,0.838-0.964
							c0.582,0,0.732,0.512,0.732,0.839c0,0.066-0.004,0.118-0.011,0.154L75.483,1.776z M76.428,1.545
							c0.004-0.202-0.084-0.525-0.445-0.525c-0.331,0-0.471,0.301-0.496,0.525H76.428z"/>
						<path i:knockout="Off" d="M77.145,1.387c0-0.209-0.004-0.391-0.014-0.556h0.283l0.014,0.35h0.012
							c0.08-0.239,0.279-0.39,0.496-0.39c0.033,0,0.059,0.004,0.088,0.011v0.302c-0.036-0.004-0.069-0.008-0.113-0.008
							c-0.229,0-0.391,0.173-0.434,0.412c-0.008,0.048-0.012,0.1-0.012,0.155v0.948h-0.324L77.145,1.387z"/>
						<path i:knockout="Off" d="M78.3,2.284c0.1,0.059,0.269,0.125,0.431,0.125c0.231,0,0.342-0.114,0.342-0.265
							c0-0.154-0.092-0.239-0.327-0.328c-0.323-0.117-0.475-0.29-0.475-0.504c0-0.286,0.235-0.521,0.614-0.521
							c0.18,0,0.338,0.048,0.434,0.11l-0.076,0.231c-0.07-0.041-0.199-0.103-0.365-0.103c-0.19,0-0.294,0.11-0.294,0.242
							c0,0.151,0.104,0.218,0.335,0.306c0.305,0.114,0.467,0.269,0.467,0.537c0,0.316-0.246,0.537-0.662,0.537
							c-0.195,0-0.375-0.052-0.5-0.125L78.3,2.284z"/>
						<path i:knockout="Off" d="M79.956,0.504c-0.121,0-0.202-0.096-0.202-0.21s0.085-0.206,0.21-0.206s0.205,0.092,0.205,0.206
							s-0.08,0.21-0.209,0.21H79.956z M79.801,2.611v-1.78h0.324v1.78H79.801z"/>
						<path i:knockout="Off" d="M81.387,2.652c-0.479,0-0.854-0.354-0.854-0.916c0-0.596,0.394-0.945,0.883-0.945
							c0.512,0,0.857,0.371,0.857,0.912c0,0.662-0.461,0.949-0.883,0.949H81.387z M81.398,2.409c0.31,0,0.54-0.291,0.54-0.695
							c0-0.302-0.15-0.681-0.533-0.681c-0.379,0-0.544,0.354-0.544,0.692c0,0.39,0.221,0.684,0.533,0.684H81.398z"/>
						<path i:knockout="Off" d="M82.682,1.312c0-0.188-0.004-0.334-0.016-0.481h0.287l0.019,0.291h0.007
							c0.089-0.165,0.295-0.331,0.589-0.331c0.247,0,0.63,0.147,0.63,0.758v1.062h-0.324V1.585c0-0.286-0.107-0.529-0.412-0.529
							c-0.209,0-0.375,0.151-0.434,0.331c-0.016,0.04-0.022,0.1-0.022,0.15v1.074h-0.323V1.312z"/>
						<path i:knockout="Off" d="M85.893,0.404v0.427h0.463v0.247h-0.463v0.96c0,0.221,0.062,0.345,0.242,0.345
							c0.088,0,0.141-0.007,0.188-0.021l0.016,0.247c-0.062,0.021-0.162,0.044-0.287,0.044c-0.151,0-0.272-0.052-0.35-0.137
							c-0.088-0.099-0.125-0.257-0.125-0.467V1.078H85.3V0.831h0.276V0.504L85.893,0.404z"/>
						<path i:knockout="Off" d="M86.72,0h0.323v1.11h0.008c0.051-0.091,0.133-0.177,0.232-0.228c0.096-0.059,0.209-0.092,0.33-0.092
							c0.24,0,0.622,0.147,0.622,0.761v1.06h-0.323V1.589c0-0.29-0.107-0.529-0.412-0.529c-0.21,0-0.372,0.147-0.435,0.323
							c-0.019,0.044-0.022,0.092-0.022,0.154v1.074H86.72V0z"/>
						<path i:knockout="Off" d="M88.766,1.387c0-0.209-0.004-0.391-0.016-0.556h0.283l0.016,0.35h0.011
							c0.081-0.239,0.279-0.39,0.497-0.39c0.033,0,0.059,0.004,0.088,0.011v0.302c-0.037-0.004-0.07-0.008-0.114-0.008
							c-0.228,0-0.39,0.173-0.435,0.412c-0.007,0.048-0.011,0.1-0.011,0.155v0.948h-0.323L88.766,1.387z"/>
						<path i:knockout="Off" d="M90.127,1.776c0.008,0.438,0.283,0.618,0.607,0.618c0.23,0,0.375-0.041,0.492-0.088l0.059,0.228
							c-0.113,0.052-0.312,0.114-0.596,0.114c-0.545,0-0.875-0.364-0.875-0.897c0-0.541,0.32-0.964,0.838-0.964
							c0.582,0,0.732,0.512,0.732,0.839c0,0.066-0.004,0.118-0.012,0.154L90.127,1.776z M91.073,1.545
							c0.004-0.202-0.084-0.525-0.445-0.525c-0.331,0-0.471,0.301-0.496,0.525H91.073z"/>
						<path i:knockout="Off" d="M91.97,1.776c0.007,0.438,0.283,0.618,0.606,0.618c0.232,0,0.375-0.041,0.493-0.088l0.06,0.228
							c-0.114,0.052-0.312,0.114-0.596,0.114c-0.545,0-0.876-0.364-0.876-0.897c0-0.541,0.319-0.964,0.839-0.964
							c0.58,0,0.731,0.512,0.731,0.839c0,0.066-0.003,0.118-0.011,0.154L91.97,1.776z M92.916,1.545
							c0.003-0.202-0.085-0.525-0.445-0.525c-0.331,0-0.471,0.301-0.496,0.525H92.916z"/>
					</g>
				</g>
				<g i:knockout="Off">
					<path i:knockout="Off" d="M27.527,11.29h0.528v1.817h0.012c0.186-0.323,0.522-0.527,0.99-0.527c0.72,0,1.224,0.6,1.224,1.476
						c0,1.044-0.66,1.561-1.308,1.561c-0.42,0-0.75-0.162-0.972-0.547h-0.012l-0.03,0.48h-0.456c0.018-0.198,0.024-0.492,0.024-0.75
						V11.29z M28.055,14.386c0,0.066,0.006,0.132,0.018,0.192c0.102,0.365,0.414,0.617,0.792,0.617c0.558,0,0.882-0.449,0.882-1.115
						c0-0.588-0.3-1.086-0.864-1.086c-0.36,0-0.696,0.252-0.798,0.647c-0.018,0.066-0.03,0.138-0.03,0.223V14.386z"/>
					<path i:knockout="Off" d="M31.086,12.646l0.63,1.716c0.072,0.192,0.144,0.421,0.192,0.595h0.012
						c0.054-0.174,0.114-0.396,0.186-0.606l0.576-1.704h0.558l-0.792,2.07c-0.378,0.996-0.636,1.506-0.996,1.824
						c-0.264,0.222-0.516,0.312-0.648,0.336l-0.132-0.444c0.132-0.036,0.306-0.12,0.462-0.258c0.144-0.114,0.318-0.318,0.444-0.588
						c0.024-0.054,0.042-0.09,0.042-0.126c0-0.03-0.012-0.072-0.042-0.132l-1.068-2.683H31.086z"/>
					<path i:knockout="Off" d="M37.038,14.854c0,0.252,0.012,0.498,0.042,0.696h-0.474l-0.048-0.366H36.54
						c-0.156,0.229-0.474,0.433-0.888,0.433c-0.588,0-0.888-0.414-0.888-0.834c0-0.702,0.624-1.087,1.746-1.08v-0.061
						c0-0.24-0.066-0.678-0.66-0.672c-0.276,0-0.558,0.078-0.762,0.216l-0.12-0.354c0.24-0.15,0.594-0.252,0.96-0.252
						c0.894,0,1.11,0.605,1.11,1.188V14.854z M36.521,14.067c-0.576-0.012-1.23,0.091-1.23,0.654c0,0.348,0.228,0.504,0.492,0.504
						c0.384,0,0.63-0.24,0.714-0.485c0.018-0.055,0.024-0.114,0.024-0.168V14.067z"/>
					<path i:knockout="Off" d="M37.884,11.29h0.528v4.26h-0.528V11.29z"/>
					<path i:knockout="Off" d="M39.587,14.188c0.012,0.714,0.462,1.008,0.99,1.008c0.378,0,0.612-0.065,0.804-0.144l0.096,0.372
						c-0.186,0.084-0.51,0.186-0.972,0.186c-0.888,0-1.428-0.594-1.428-1.464c0-0.882,0.522-1.571,1.368-1.571
						c0.947,0,1.193,0.834,1.193,1.367c0,0.108-0.006,0.192-0.018,0.252L39.587,14.188z M41.129,13.81
						c0.006-0.33-0.138-0.857-0.726-0.857c-0.54,0-0.768,0.491-0.81,0.857H41.129z"/>
					<path i:knockout="Off" d="M42.522,12.646l0.414,0.618c0.107,0.168,0.197,0.312,0.294,0.474h0.019
						c0.096-0.168,0.191-0.317,0.293-0.474l0.402-0.618h0.576l-0.99,1.404l1.014,1.5h-0.6l-0.426-0.654
						c-0.114-0.168-0.21-0.33-0.312-0.504h-0.012c-0.096,0.174-0.197,0.33-0.307,0.504l-0.42,0.654h-0.582l1.033-1.482l-0.984-1.422
						H42.522z"/>
					<path i:knockout="Off" d="M47.1,14.854c0,0.252,0.012,0.498,0.042,0.696h-0.474l-0.049-0.366h-0.018
						c-0.156,0.229-0.474,0.433-0.888,0.433c-0.589,0-0.888-0.414-0.888-0.834c0-0.702,0.623-1.087,1.746-1.08v-0.061
						c0-0.24-0.066-0.678-0.66-0.672c-0.276,0-0.559,0.078-0.762,0.216l-0.121-0.354c0.24-0.15,0.594-0.252,0.961-0.252
						c0.894,0,1.109,0.605,1.109,1.188V14.854z M46.584,14.067c-0.576-0.012-1.23,0.091-1.23,0.654c0,0.348,0.229,0.504,0.492,0.504
						c0.384,0,0.63-0.24,0.714-0.485c0.019-0.055,0.024-0.114,0.024-0.168V14.067z"/>
					<path i:knockout="Off" d="M47.946,13.432c0-0.306-0.006-0.546-0.023-0.786h0.468l0.03,0.475h0.012
						c0.145-0.271,0.48-0.54,0.96-0.54c0.402,0,1.026,0.239,1.026,1.235v1.734H49.89v-1.674c0-0.468-0.174-0.864-0.672-0.864
						c-0.342,0-0.612,0.246-0.708,0.54c-0.023,0.066-0.036,0.162-0.036,0.246v1.752h-0.528V13.432z"/>
					<path i:knockout="Off" d="M53.784,11.29v3.51c0,0.258,0.006,0.552,0.024,0.75h-0.474l-0.024-0.504h-0.013
						c-0.162,0.324-0.51,0.57-0.983,0.57c-0.702,0-1.248-0.595-1.248-1.477c-0.006-0.972,0.601-1.56,1.302-1.56
						c0.45,0,0.75,0.21,0.876,0.438h0.013V11.29H53.784z M53.256,13.828c0-0.072-0.006-0.156-0.024-0.229
						c-0.078-0.33-0.366-0.605-0.763-0.605c-0.545,0-0.869,0.479-0.869,1.115c0,0.595,0.294,1.08,0.857,1.08
						c0.354,0,0.678-0.239,0.774-0.63c0.019-0.071,0.024-0.144,0.024-0.228V13.828z"/>
					<path i:knockout="Off" d="M54.959,14.188c0.013,0.714,0.463,1.008,0.99,1.008c0.379,0,0.612-0.065,0.805-0.144l0.096,0.372
						c-0.186,0.084-0.51,0.186-0.972,0.186c-0.888,0-1.429-0.594-1.429-1.464c0-0.882,0.522-1.571,1.369-1.571
						c0.947,0,1.193,0.834,1.193,1.367c0,0.108-0.006,0.192-0.018,0.252L54.959,14.188z M56.502,13.81
						c0.006-0.33-0.139-0.857-0.727-0.857c-0.539,0-0.768,0.491-0.81,0.857H56.502z"/>
					<path i:knockout="Off" d="M57.672,13.552c0-0.342-0.006-0.636-0.024-0.906h0.462l0.024,0.57h0.018
						c0.132-0.39,0.456-0.636,0.81-0.636c0.055,0,0.097,0.006,0.145,0.018v0.492c-0.061-0.006-0.113-0.012-0.186-0.012
						c-0.373,0-0.637,0.281-0.709,0.672c-0.012,0.078-0.018,0.162-0.018,0.252v1.548h-0.527L57.672,13.552z"/>
					<path i:knockout="Off" d="M60.948,15.55v-2.502h-0.402v-0.402h0.402v-0.138c0-0.408,0.096-0.78,0.342-1.014
						c0.198-0.192,0.463-0.271,0.702-0.271c0.192,0,0.349,0.042,0.45,0.084l-0.066,0.408c-0.084-0.036-0.186-0.066-0.342-0.066
						c-0.443,0-0.564,0.396-0.564,0.841v0.155h0.703v0.402h-0.696v2.502H60.948z"/>
					<path i:knockout="Off" d="M62.658,13.552c0-0.342-0.006-0.636-0.024-0.906h0.463l0.023,0.57h0.018
						c0.133-0.39,0.457-0.636,0.811-0.636c0.055,0,0.096,0.006,0.145,0.018v0.492c-0.061-0.006-0.114-0.012-0.187-0.012
						c-0.372,0-0.636,0.281-0.708,0.672c-0.012,0.078-0.018,0.162-0.018,0.252v1.548h-0.528L62.658,13.552z"/>
					<path i:knockout="Off" d="M66.625,14.854c0,0.252,0.013,0.498,0.042,0.696h-0.474l-0.048-0.366h-0.019
						c-0.155,0.229-0.474,0.433-0.888,0.433c-0.588,0-0.889-0.414-0.889-0.834c0-0.702,0.625-1.087,1.746-1.08v-0.061
						c0-0.24-0.065-0.678-0.66-0.672c-0.275,0-0.558,0.078-0.762,0.216l-0.119-0.354c0.239-0.15,0.594-0.252,0.959-0.252
						c0.895,0,1.11,0.605,1.11,1.188V14.854z M66.108,14.067c-0.575-0.012-1.229,0.091-1.229,0.654c0,0.348,0.228,0.504,0.492,0.504
						c0.384,0,0.63-0.24,0.714-0.485c0.018-0.055,0.023-0.114,0.023-0.168V14.067z"/>
					<path i:knockout="Off" d="M67.471,13.432c0-0.306-0.006-0.546-0.024-0.786h0.468l0.03,0.475h0.012
						c0.144-0.271,0.479-0.54,0.96-0.54c0.402,0,1.026,0.239,1.026,1.235v1.734h-0.528v-1.674c0-0.468-0.174-0.864-0.672-0.864
						c-0.342,0-0.611,0.246-0.708,0.54c-0.024,0.066-0.036,0.162-0.036,0.246v1.752h-0.527V13.432z"/>
					<path i:knockout="Off" d="M70.471,15.244l1.313-1.71c0.132-0.162,0.246-0.301,0.384-0.456v-0.013H70.59v-0.42h2.215v0.33
						l-1.303,1.692c-0.119,0.156-0.24,0.306-0.371,0.45v0.012h1.697v0.42h-2.357V15.244z"/>
					<path i:knockout="Off" d="M73.627,14.188c0.012,0.714,0.463,1.008,0.99,1.008c0.378,0,0.611-0.065,0.805-0.144l0.096,0.372
						c-0.187,0.084-0.51,0.186-0.973,0.186c-0.888,0-1.428-0.594-1.428-1.464c0-0.882,0.521-1.571,1.368-1.571
						c0.948,0,1.194,0.834,1.194,1.367c0,0.108-0.006,0.192-0.019,0.252L73.627,14.188z M75.169,13.81
						c0.007-0.33-0.138-0.857-0.726-0.857c-0.54,0-0.768,0.491-0.811,0.857H75.169z"/>
					<path i:knockout="Off" d="M76.333,13.432c0-0.306-0.006-0.546-0.024-0.786h0.469l0.029,0.475h0.012
						c0.145-0.271,0.48-0.54,0.961-0.54c0.402,0,1.025,0.239,1.025,1.235v1.734h-0.527v-1.674c0-0.468-0.174-0.864-0.672-0.864
						c-0.342,0-0.612,0.246-0.709,0.54c-0.023,0.066-0.035,0.162-0.035,0.246v1.752h-0.528V13.432z"/>
					<path i:knockout="Off" d="M80.768,15.55v-0.324l0.414-0.401c0.996-0.948,1.451-1.452,1.451-2.04
						c0-0.396-0.186-0.763-0.768-0.763c-0.354,0-0.648,0.181-0.828,0.33l-0.168-0.372c0.264-0.222,0.654-0.396,1.104-0.396
						c0.834,0,1.188,0.576,1.188,1.134c0,0.72-0.522,1.302-1.345,2.094L81.512,15.1v0.012h1.745v0.438H80.768z"/>
					<path i:knockout="Off" d="M84.542,13.978h0.012c0.072-0.102,0.168-0.233,0.252-0.33l0.857-1.002h0.631l-1.122,1.194l1.278,1.71
						h-0.643l-0.996-1.398l-0.27,0.307v1.092h-0.528v-4.26h0.528V13.978z"/>
					<path i:knockout="Off" d="M88.37,12.357v1.41h1.355v0.36H88.37v1.422h-0.385v-1.422h-1.355v-0.36h1.355v-1.41H88.37z"/>
					<path i:knockout="Off" d="M92.461,12.016c-0.107-0.006-0.246,0.006-0.396,0.03c-0.834,0.132-1.266,0.738-1.355,1.386h0.012
						c0.186-0.252,0.516-0.456,0.948-0.456c0.69,0,1.176,0.504,1.176,1.26c0,0.721-0.485,1.381-1.302,1.381
						c-0.828,0-1.374-0.648-1.374-1.662c0-0.769,0.271-1.374,0.659-1.765c0.324-0.317,0.757-0.516,1.248-0.576
						c0.156-0.023,0.289-0.029,0.385-0.029V12.016z M91.555,15.208c0.45,0,0.756-0.378,0.756-0.937c0-0.558-0.318-0.894-0.804-0.894
						c-0.317,0-0.618,0.191-0.763,0.479c-0.029,0.061-0.053,0.133-0.053,0.229c0.006,0.642,0.306,1.122,0.857,1.122H91.555z"/>
				</g>
			</g>
		</g>
	</svg>
